<?xml version="1.0" encoding="UTF-8"?><svg id="_イヤー_2" xmlns="http://www.w3.org/2000/svg" viewBox="0 0 144 216"><defs><style>.cls-1,.cls-2{fill:#fff;}.cls-2,.cls-3{stroke:#000;stroke-miterlimit:10;stroke-width:2px;}.cls-3{fill:none;}</style></defs><g id="_イヤー_1-2"><g><circle class="cls-1" cx="72" cy="108" r="71"/><path d="M72,38c38.6,0,70,31.4,70,70s-31.4,70-70,70S2,146.6,2,108,33.4,38,72,38m0-2C32.24,36,0,68.24,0,108s32.24,72,72,72,72-32.24,72-72S111.76,36,72,36h0Z"/></g><line class="cls-2" x1="72" x2="72" y2="36"/><line class="cls-2" x1="72" y1="180" x2="72" y2="216"/><path class="cls-3" d="M18,108c0-27,27-27,27-27s27,0,27,27,27,27,27,27,27,0,27-27"/></g></svg>